<svg width="25" height="24" viewBox="0 0 25 24" fill="none" xmlns="http://www.w3.org/2000/svg">
<path d="M13.5 15.28V8.5C13.5 8.23478 13.3946 7.98043 13.2071 7.79289C13.0196 7.60536 12.7652 7.5 12.5 7.5C12.2348 7.5 11.9804 7.60536 11.7929 7.79289C11.6054 7.98043 11.5 8.23478 11.5 8.5V15.28C11.1977 15.4545 10.9464 15.7051 10.771 16.0068C10.5955 16.3086 10.5021 16.651 10.5 17C10.5 17.5304 10.7107 18.0391 11.0858 18.4142C11.4609 18.7893 11.9696 19 12.5 19C13.0304 19 13.5391 18.7893 13.9142 18.4142C14.2893 18.0391 14.5 17.5304 14.5 17C14.4979 16.651 14.4045 16.3086 14.2291 16.0068C14.0536 15.7051 13.8023 15.4545 13.5 15.28ZM17 13V5.5C17 4.30653 16.5259 3.16193 15.682 2.31802C14.8381 1.47411 13.6935 1 12.5 1C11.3065 1 10.1619 1.47411 9.31802 2.31802C8.47411 3.16193 8 4.30653 8 5.5V13C7.30884 13.7832 6.83413 14.7333 6.62281 15.7562C6.4115 16.7792 6.4709 17.8396 6.79516 18.8326C7.11941 19.8255 7.69727 20.7166 8.47158 21.4177C9.24589 22.1188 10.1898 22.6056 11.21 22.83C11.6338 22.9266 12.0657 22.9835 12.5 23C13.6606 23.0054 14.7979 22.6741 15.774 22.0461C16.7501 21.4182 17.5232 20.5207 17.9995 19.4623C18.4757 18.4038 18.6348 17.23 18.4574 16.083C18.28 14.936 17.7738 13.8651 17 13V13ZM15 20.07C14.2044 20.7755 13.161 21.136 12.0996 21.0722C11.0381 21.0085 10.0455 20.5256 9.34 19.73C8.63453 18.9344 8.27401 17.891 8.33778 16.8296C8.40154 15.7681 8.88435 14.7755 9.68 14.07C9.77449 13.9774 9.84966 13.8669 9.90116 13.7451C9.95265 13.6232 9.97945 13.4923 9.98 13.36V5.5C9.98 4.83696 10.2434 4.20107 10.7122 3.73223C11.1811 3.26339 11.817 3 12.48 3C13.143 3 13.7789 3.26339 14.2478 3.73223C14.7166 4.20107 14.98 4.83696 14.98 5.5V13.44C14.9805 13.5723 15.0073 13.7032 15.0588 13.8251C15.1103 13.9469 15.1855 14.0574 15.28 14.15C15.6888 14.5449 16.0087 15.0223 16.2184 15.5505C16.4282 16.0787 16.523 16.6456 16.4965 17.2133C16.47 17.781 16.3228 18.3366 16.0648 18.843C15.8067 19.3493 15.4438 19.7949 15 20.15V20.07Z" fill="white"/>
</svg>
