<svg width="25" height="24" viewBox="0 0 25 24" fill="none" xmlns="http://www.w3.org/2000/svg">
<path d="M3.22001 7.65001C3.41556 7.70743 3.60356 7.788 3.78001 7.89001C4.39982 8.25994 5.10819 8.45526 5.83001 8.45526C6.55182 8.45526 7.26019 8.25994 7.88001 7.89001C8.27047 7.66917 8.71142 7.5531 9.16001 7.5531C9.60859 7.5531 10.0495 7.66917 10.44 7.89001C11.0673 8.2487 11.7774 8.43739 12.5 8.43739C13.2226 8.43739 13.9327 8.2487 14.56 7.89001C14.9505 7.66917 15.3914 7.5531 15.84 7.5531C16.2886 7.5531 16.7295 7.66917 17.12 7.89001C17.7537 8.2522 18.4701 8.44506 19.2 8.45001C19.9052 8.44856 20.5966 8.25495 21.2 7.89001C21.3765 7.788 21.5645 7.70743 21.76 7.65001C22.0146 7.57575 22.2293 7.40339 22.3568 7.17084C22.4843 6.9383 22.5143 6.66462 22.44 6.41001C22.3657 6.1554 22.1934 5.94072 21.9608 5.8132C21.7283 5.68567 21.4546 5.65575 21.2 5.73001C20.8494 5.83821 20.5135 5.98935 20.2 6.18001C19.8814 6.3663 19.519 6.46449 19.15 6.46449C18.781 6.46449 18.4186 6.3663 18.1 6.18001C17.4067 5.79108 16.625 5.58682 15.83 5.58682C15.035 5.58682 14.2534 5.79108 13.56 6.18001C13.2381 6.36706 12.8723 6.46559 12.5 6.46559C12.1277 6.46559 11.762 6.36706 11.44 6.18001C10.7467 5.79108 9.965 5.58682 9.17001 5.58682C8.37502 5.58682 7.59336 5.79108 6.90001 6.18001C6.58144 6.3663 6.21905 6.46449 5.85001 6.46449C5.48097 6.46449 5.11857 6.3663 4.80001 6.18001C4.4865 5.98935 4.15062 5.83821 3.80001 5.73001C3.5454 5.65575 3.27172 5.68567 3.03917 5.8132C2.80663 5.94072 2.63427 6.1554 2.56001 6.41001C2.48575 6.66462 2.51567 6.9383 2.64319 7.17084C2.77072 7.40339 2.9854 7.57575 3.24001 7.65001H3.22001ZM21.22 15.73C20.8694 15.8382 20.5335 15.9894 20.22 16.18C19.9014 16.3663 19.539 16.4645 19.17 16.4645C18.801 16.4645 18.4386 16.3663 18.12 16.18C17.4267 15.7911 16.645 15.5868 15.85 15.5868C15.055 15.5868 14.2734 15.7911 13.58 16.18C13.2581 16.3671 12.8923 16.4656 12.52 16.4656C12.1477 16.4656 11.782 16.3671 11.46 16.18C10.7667 15.7911 9.985 15.5868 9.19001 15.5868C8.39502 15.5868 7.61336 15.7911 6.92001 16.18C6.60144 16.3663 6.23905 16.4645 5.87001 16.4645C5.50097 16.4645 5.13857 16.3663 4.82001 16.18C4.5065 15.9894 4.17062 15.8382 3.82001 15.73C3.69394 15.6932 3.56186 15.6817 3.43132 15.6959C3.30077 15.7102 3.17432 15.7501 3.05917 15.8132C2.94403 15.8763 2.84245 15.9615 2.76023 16.0639C2.67802 16.1663 2.61678 16.2839 2.58001 16.41C2.54324 16.5361 2.53166 16.6682 2.54593 16.7987C2.5602 16.9292 2.60005 17.0557 2.66319 17.1708C2.72634 17.286 2.81154 17.3876 2.91394 17.4698C3.01635 17.552 3.13394 17.6132 3.26001 17.65C3.45556 17.7074 3.64356 17.788 3.82001 17.89C4.43982 18.2599 5.14819 18.4553 5.87001 18.4553C6.59182 18.4553 7.30019 18.2599 7.92001 17.89C8.31047 17.6692 8.75142 17.5531 9.20001 17.5531C9.64859 17.5531 10.0895 17.6692 10.48 17.89C11.1073 18.2487 11.8174 18.4374 12.54 18.4374C13.2626 18.4374 13.9727 18.2487 14.6 17.89C14.9905 17.6692 15.4314 17.5531 15.88 17.5531C16.3286 17.5531 16.7695 17.6692 17.16 17.89C17.7937 18.2522 18.5101 18.4451 19.24 18.45C19.9452 18.4486 20.6366 18.255 21.24 17.89C21.4165 17.788 21.6045 17.7074 21.8 17.65C22.0546 17.5757 22.2693 17.4034 22.3968 17.1708C22.5243 16.9383 22.5543 16.6646 22.48 16.41C22.4057 16.1554 22.2334 15.9407 22.0008 15.8132C21.7683 15.6857 21.4946 15.6557 21.24 15.73H21.22ZM21.22 10.73C20.8694 10.8382 20.5335 10.9894 20.22 11.18C19.9014 11.3663 19.539 11.4645 19.17 11.4645C18.801 11.4645 18.4386 11.3663 18.12 11.18C17.4267 10.7911 16.645 10.5868 15.85 10.5868C15.055 10.5868 14.2734 10.7911 13.58 11.18C13.2581 11.3671 12.8923 11.4656 12.52 11.4656C12.1477 11.4656 11.782 11.3671 11.46 11.18C10.7667 10.7911 9.985 10.5868 9.19001 10.5868C8.39502 10.5868 7.61336 10.7911 6.92001 11.18C6.60144 11.3663 6.23905 11.4645 5.87001 11.4645C5.50097 11.4645 5.13857 11.3663 4.82001 11.18C4.5065 10.9894 4.17062 10.8382 3.82001 10.73C3.68907 10.6806 3.54921 10.6592 3.40948 10.6672C3.26976 10.6752 3.13327 10.7125 3.00885 10.7766C2.88443 10.8407 2.77485 10.9302 2.6872 11.0393C2.59954 11.1484 2.53577 11.2747 2.50001 11.41C2.46324 11.5361 2.45166 11.6682 2.46593 11.7987C2.4802 11.9292 2.52005 12.0557 2.58319 12.1708C2.64634 12.286 2.73154 12.3876 2.83394 12.4698C2.93635 12.552 3.05394 12.6132 3.18001 12.65C3.37556 12.7074 3.56356 12.788 3.74001 12.89C4.35982 13.2599 5.06819 13.4553 5.79001 13.4553C6.51182 13.4553 7.22019 13.2599 7.84001 12.89C8.23047 12.6692 8.67142 12.5531 9.12001 12.5531C9.56859 12.5531 10.0095 12.6692 10.4 12.89C11.0273 13.2487 11.7374 13.4374 12.46 13.4374C13.1826 13.4374 13.8927 13.2487 14.52 12.89C14.9105 12.6692 15.3514 12.5531 15.8 12.5531C16.2486 12.5531 16.6895 12.6692 17.08 12.89C17.7137 13.2522 18.4301 13.4451 19.16 13.45C19.8652 13.4486 20.5566 13.255 21.16 12.89C21.3365 12.788 21.5245 12.7074 21.72 12.65C21.9746 12.5757 22.1893 12.4034 22.3168 12.1708C22.4443 11.9383 22.4743 11.6646 22.4 11.41C22.3257 11.1554 22.1534 10.9407 21.9208 10.8132C21.6883 10.6857 21.4146 10.6557 21.16 10.73H21.22Z" fill="white"/>
</svg>
