<svg width="23" height="22" viewBox="0 0 23 22" fill="none" xmlns="http://www.w3.org/2000/svg">
<g clip-path="url(#clip0_3_36)">
<path d="M20.92 10.6C18.9 5.91 15.1 3 11 3C6.90001 3 3.10001 5.91 1.08001 10.6C1.02494 10.7262 0.996521 10.8623 0.996521 11C0.996521 11.1377 1.02494 11.2738 1.08001 11.4C3.10001 16.09 6.90001 19 11 19C15.1 19 18.9 16.09 20.92 11.4C20.9751 11.2738 21.0035 11.1377 21.0035 11C21.0035 10.8623 20.9751 10.7262 20.92 10.6ZM11 17C7.82001 17 4.83001 14.71 3.10001 11C4.83001 7.29 7.82001 5 11 5C14.18 5 17.17 7.29 18.9 11C17.17 14.71 14.18 17 11 17ZM11 7C10.2089 7 9.43552 7.2346 8.77773 7.67412C8.11993 8.11365 7.60724 8.73836 7.30449 9.46927C7.00174 10.2002 6.92252 11.0044 7.07686 11.7804C7.2312 12.5563 7.61217 13.269 8.17158 13.8284C8.73099 14.3878 9.44372 14.7688 10.2196 14.9231C10.9956 15.0775 11.7998 14.9983 12.5307 14.6955C13.2616 14.3928 13.8864 13.8801 14.3259 13.2223C14.7654 12.5645 15 11.7911 15 11C15 9.93913 14.5786 8.92172 13.8284 8.17157C13.0783 7.42143 12.0609 7 11 7ZM11 13C10.6044 13 10.2178 12.8827 9.88887 12.6629C9.55997 12.4432 9.30362 12.1308 9.15225 11.7654C9.00087 11.3999 8.96126 10.9978 9.03843 10.6098C9.11561 10.2219 9.30609 9.86549 9.58579 9.58579C9.8655 9.30608 10.2219 9.1156 10.6098 9.03843C10.9978 8.96126 11.3999 9.00087 11.7654 9.15224C12.1308 9.30362 12.4432 9.55996 12.6629 9.88886C12.8827 10.2178 13 10.6044 13 11C13 11.5304 12.7893 12.0391 12.4142 12.4142C12.0391 12.7893 11.5304 13 11 13Z" fill="white"/>
</g>
<defs>
<clipPath id="clip0_3_36">
<rect width="22" height="22" fill="white" transform="translate(0.5)"/>
</clipPath>
</defs>
</svg>
