<svg width="25" height="24" viewBox="0 0 25 24" fill="none" xmlns="http://www.w3.org/2000/svg">
<path d="M4 9C4.19778 9 4.39112 8.94135 4.55557 8.83147C4.72002 8.72159 4.84819 8.56541 4.92388 8.38268C4.99957 8.19996 5.01937 7.99889 4.98079 7.80491C4.9422 7.61093 4.84696 7.43275 4.70711 7.29289C4.56725 7.15304 4.38907 7.0578 4.19509 7.01921C4.00111 6.98063 3.80004 7.00043 3.61732 7.07612C3.43459 7.15181 3.27841 7.27998 3.16853 7.44443C3.05865 7.60888 3 7.80222 3 8C3 8.26522 3.10536 8.51957 3.29289 8.70711C3.48043 8.89464 3.73478 9 4 9ZM8 9H15C15.7956 9 16.5587 8.68393 17.1213 8.12132C17.6839 7.55871 18 6.79565 18 6C18 5.20435 17.6839 4.44129 17.1213 3.87868C16.5587 3.31607 15.7956 3 15 3C14.4739 3.00218 13.9573 3.13994 13.5 3.4C13.3854 3.46533 13.2849 3.55268 13.2042 3.65703C13.1235 3.76138 13.0643 3.88066 13.0299 4.008C12.9955 4.13534 12.9866 4.26822 13.0038 4.399C13.021 4.52978 13.0639 4.65587 13.13 4.77C13.1962 4.88375 13.2841 4.98333 13.3889 5.06302C13.4936 5.14271 13.613 5.20094 13.7403 5.23439C13.8675 5.26783 14.0002 5.27583 14.1305 5.25791C14.2609 5.24 14.3865 5.19653 14.5 5.13C14.6538 5.04722 14.8253 5.00264 15 5C15.2652 5 15.5196 5.10536 15.7071 5.29289C15.8946 5.48043 16 5.73478 16 6C16 6.26522 15.8946 6.51957 15.7071 6.70711C15.5196 6.89464 15.2652 7 15 7H8C7.73478 7 7.48043 7.10536 7.29289 7.29289C7.10536 7.48043 7 7.73478 7 8C7 8.26522 7.10536 8.51957 7.29289 8.70711C7.48043 8.89464 7.73478 9 8 9ZM4 13H11C11.2652 13 11.5196 12.8946 11.7071 12.7071C11.8946 12.5196 12 12.2652 12 12C12 11.7348 11.8946 11.4804 11.7071 11.2929C11.5196 11.1054 11.2652 11 11 11H4C3.73478 11 3.48043 11.1054 3.29289 11.2929C3.10536 11.4804 3 11.7348 3 12C3 12.2652 3.10536 12.5196 3.29289 12.7071C3.48043 12.8946 3.73478 13 4 13ZM21 9C21.1978 9 21.3911 8.94135 21.5556 8.83147C21.72 8.72159 21.8482 8.56541 21.9239 8.38268C21.9996 8.19996 22.0194 7.99889 21.9808 7.80491C21.9422 7.61093 21.847 7.43275 21.7071 7.29289C21.5673 7.15304 21.3891 7.0578 21.1951 7.01921C21.0011 6.98063 20.8 7.00043 20.6173 7.07612C20.4346 7.15181 20.2784 7.27998 20.1685 7.44443C20.0586 7.60888 20 7.80222 20 8C20 8.26522 20.1054 8.51957 20.2929 8.70711C20.4804 8.89464 20.7348 9 21 9ZM19 11H15C14.7348 11 14.4804 11.1054 14.2929 11.2929C14.1054 11.4804 14 11.7348 14 12C14 12.2652 14.1054 12.5196 14.2929 12.7071C14.4804 12.8946 14.7348 13 15 13H19C19.2652 13 19.5196 13.1054 19.7071 13.2929C19.8946 13.4804 20 13.7348 20 14C20 14.2652 19.8946 14.5196 19.7071 14.7071C19.5196 14.8946 19.2652 15 19 15C18.7348 15 18.4804 15.1054 18.2929 15.2929C18.1054 15.4804 18 15.7348 18 16C18 16.2652 18.1054 16.5196 18.2929 16.7071C18.4804 16.8946 18.7348 17 19 17C19.7956 17 20.5587 16.6839 21.1213 16.1213C21.6839 15.5587 22 14.7956 22 14C22 13.2044 21.6839 12.4413 21.1213 11.8787C20.5587 11.3161 19.7956 11 19 11ZM13 15H9C8.73478 15 8.48043 15.1054 8.29289 15.2929C8.10536 15.4804 8 15.7348 8 16C8 16.2652 8.10536 16.5196 8.29289 16.7071C8.48043 16.8946 8.73478 17 9 17H13C13.2652 17 13.5196 17.1054 13.7071 17.2929C13.8946 17.4804 14 17.7348 14 18C14 18.2652 13.8946 18.5196 13.7071 18.7071C13.5196 18.8946 13.2652 19 13 19C12.8253 18.9974 12.6538 18.9528 12.5 18.87C12.3862 18.7976 12.2589 18.7491 12.1258 18.7272C11.9927 18.7053 11.8566 18.7105 11.7256 18.7426C11.5946 18.7747 11.4715 18.833 11.3636 18.9139C11.2557 18.9948 11.1652 19.0967 11.0978 19.2135C11.0303 19.3302 10.9871 19.4594 10.9708 19.5933C10.9546 19.7272 10.9655 19.863 11.0031 19.9925C11.0407 20.1221 11.1041 20.2427 11.1895 20.347C11.2749 20.4514 11.3805 20.5375 11.5 20.6C11.9573 20.8601 12.4739 20.9978 13 21C13.7956 21 14.5587 20.6839 15.1213 20.1213C15.6839 19.5587 16 18.7956 16 18C16 17.2044 15.6839 16.4413 15.1213 15.8787C14.5587 15.3161 13.7956 15 13 15ZM5 15H4C3.73478 15 3.48043 15.1054 3.29289 15.2929C3.10536 15.4804 3 15.7348 3 16C3 16.2652 3.10536 16.5196 3.29289 16.7071C3.48043 16.8946 3.73478 17 4 17H5C5.26522 17 5.51957 16.8946 5.70711 16.7071C5.89464 16.5196 6 16.2652 6 16C6 15.7348 5.89464 15.4804 5.70711 15.2929C5.51957 15.1054 5.26522 15 5 15Z" fill="white"/>
</svg>
